<svg xmlns="http://www.w3.org/2000/svg" width="466" height="180" viewBox="0 0 466 180" version="1.1">
	<path d="M 68.544 41.589 C 60.750 44.443, 57.823 48.682, 52.035 65.497 C 47.223 79.479, 45.950 81.697, 41.716 83.477 C 38.994 84.622, 38.219 85.879, 35.805 93.063 C 33.054 101.247, 33.047 101.344, 35.013 102.722 C 37.887 104.735, 37.524 108.049, 32.947 121.547 C 27.828 136.645, 27.481 141.296, 31.231 144.522 C 34.460 147.300, 39.784 148.240, 49.872 147.812 L 57.245 147.500 60.095 139.500 C 61.663 135.100, 62.958 131.387, 62.973 131.250 C 62.988 131.113, 60.736 131, 57.969 131 C 54.358 131, 52.770 130.565, 52.346 129.458 C 52.020 128.610, 53.406 123.045, 55.425 117.090 C 59.645 104.643, 60.246 99.034, 57.664 96.181 C 55.968 94.308, 56.048 94.130, 59.992 91.006 C 64.727 87.256, 66.486 84.037, 70.923 71 C 75.238 58.325, 75.822 57.631, 82.700 57.009 L 88.327 56.500 91.095 48.250 L 93.862 40 83.181 40.070 C 76.512 40.114, 71.014 40.685, 68.544 41.589 M 408.479 41.250 C 406.623 46.320, 404 54.462, 404 55.157 C 404 55.620, 405.096 56, 406.435 56 C 410.399 56, 414 57.799, 414 59.779 C 414 60.784, 412.425 66.284, 410.500 72 C 406.711 83.251, 406.178 88.382, 408.461 91.641 C 409.824 93.586, 409.654 93.943, 405.955 96.916 C 401.283 100.670, 399.382 104.191, 395.105 117 C 390.913 129.555, 390.230 130.364, 383.300 130.991 L 377.673 131.500 374.905 139.750 L 372.138 148 381.887 148 C 393.899 148, 400.465 146.205, 404.657 141.777 C 408.618 137.594, 408.899 137.016, 414.507 121.487 C 419.494 107.679, 420.592 105.826, 424.827 104.071 C 426.999 103.172, 428.050 101.396, 430.343 94.745 L 433.177 86.529 431.088 85.143 C 428.168 83.204, 428.434 80.511, 432.867 67.153 C 437.708 52.564, 438.199 50.224, 437.202 46.500 C 435.901 41.645, 431.359 40.003, 419.219 40.002 C 411.903 40, 408.805 40.361, 408.479 41.250 M 206.500 54.186 C 195.921 55.590, 187.401 60.889, 180 70.669 C 176.951 74.698, 175.712 77.581, 170.887 91.881 C 168.174 99.921, 165.560 107.400, 165.077 108.500 C 164.595 109.600, 163.411 113.200, 162.448 116.500 C 161.484 119.800, 160.104 124.202, 159.381 126.282 L 158.066 130.065 169.125 129.782 L 180.184 129.500 182.884 121 C 185.478 112.835, 185.716 112.480, 188.904 112 C 192.082 111.521, 192.362 111.109, 195.520 102.250 L 198.818 93 195.802 93 C 193.805 93, 192.945 92.578, 193.257 91.750 C 193.517 91.063, 194.454 87.992, 195.341 84.926 C 197.090 78.881, 199.307 76.200, 202.912 75.773 C 208.085 75.160, 207.870 77.834, 201.192 97.239 C 197.735 107.283, 193.852 118.763, 192.562 122.750 L 190.217 130 201.028 130 L 211.839 130 213.552 124.750 C 214.494 121.862, 215.710 118.938, 216.255 118.250 C 216.799 117.562, 216.971 117, 216.637 117 C 216.303 117, 216.886 114.825, 217.934 112.167 C 223.124 99.001, 230.307 74.973, 230.684 69.516 C 231.210 61.908, 229.804 59.132, 224 56.320 C 218.501 53.655, 214.329 53.147, 206.500 54.186 M 120.607 56.446 C 116.816 57.799, 111.191 60.580, 108.107 62.625 C 102.461 66.368, 90 78.204, 90 79.823 C 90 80.302, 89.100 81.732, 88 83 C 86.900 84.268, 86 85.843, 86 86.499 C 86 87.156, 85.281 89.134, 84.402 90.897 C 83.523 92.659, 82.315 96.953, 81.718 100.439 C 79.490 113.441, 84.903 124.112, 96.212 129.013 C 107.117 133.739, 124.249 131.424, 136.387 123.584 C 144.940 118.059, 154.047 107.630, 159.381 97.250 L 161.051 94 149.776 94.018 L 138.500 94.036 135.283 98.956 C 131.145 105.285, 124.815 109.076, 117.541 109.581 C 112.867 109.906, 111.681 109.602, 109.086 107.419 C 96.389 96.735, 117.566 69.778, 133.445 76.413 C 136.928 77.868, 138.305 79.877, 139.419 85.128 C 139.932 87.544, 140.323 87.728, 144.239 87.398 C 146.582 87.201, 151.988 86.767, 156.250 86.434 L 164 85.829 163.994 80.165 C 163.991 77.049, 163.507 72.765, 162.919 70.645 C 161.327 64.914, 153.075 56.575, 148 55.568 C 147.725 55.514, 147.050 55.194, 146.500 54.858 C 145.950 54.521, 141.450 54.187, 136.500 54.115 C 129.243 54.010, 126.165 54.461, 120.607 56.446 M 242.489 78.500 C 238.199 91.425, 234.354 102, 233.944 102 C 232.600 102, 230.748 112.076, 231.260 116.610 C 232.119 124.232, 239.474 129.292, 249.884 129.421 L 256.268 129.500 257.646 125.500 C 258.404 123.300, 259.317 120.825, 259.675 120 C 260.034 119.175, 260.422 118.162, 260.539 117.750 C 260.655 117.338, 260.863 116.775, 261 116.500 C 261.137 116.225, 261.306 115.587, 261.375 115.083 C 261.444 114.579, 261.837 113.829, 262.250 113.417 C 262.663 113.004, 263 111.617, 263 110.333 C 263 108.419, 262.473 108, 260.067 108 C 258.029 108, 256.944 107.400, 256.510 106.031 C 256.032 104.526, 266.578 70.072, 271.747 56.250 C 272.103 55.298, 269.604 55, 261.252 55 L 250.290 55 242.489 78.500 M 306 55.979 C 298.557 56.950, 291.119 60.929, 286.725 66.290 C 282.565 71.367, 279.266 79.298, 272.599 100.242 C 267.566 116.055, 267.330 119.831, 271.124 123.903 C 275.331 128.418, 278.900 129.423, 292.129 129.818 L 304.758 130.195 308.306 119.597 L 311.855 109 304.177 108.852 C 292.295 108.623, 292.524 108.669, 292.202 106.412 C 291.694 102.862, 294.646 101.536, 304.256 101 L 313.216 100.500 316.108 92.556 C 317.699 88.187, 319 84.575, 319 84.529 C 319 84.484, 317.184 84.620, 314.965 84.832 C 312.746 85.044, 308.921 84.915, 306.465 84.547 C 302.602 83.968, 302 83.553, 302 81.474 C 302 77.997, 304.754 77, 314.353 77 L 322.837 77 325.052 70.250 C 326.271 66.537, 327.532 63.050, 327.856 62.500 C 328.179 61.950, 328.521 60.993, 328.615 60.374 C 328.710 59.754, 329.090 58.292, 329.461 57.124 C 330.117 55.057, 329.887 55.003, 320.817 55.131 C 315.693 55.203, 309.025 55.585, 306 55.979 M 342.575 56.106 C 342.315 56.873, 338.711 67.625, 334.565 80 C 330.419 92.375, 325.268 107.675, 323.119 114 C 320.969 120.325, 318.903 126.528, 318.527 127.783 L 317.844 130.067 329.078 129.783 C 338.895 129.536, 340.345 129.279, 340.568 127.747 C 340.709 126.782, 344.758 114.497, 349.567 100.445 L 358.311 74.898 361.804 75.199 C 366.376 75.593, 368.082 78.147, 365.604 80.886 C 364.607 81.987, 362.826 83.026, 361.646 83.194 C 359.927 83.439, 358.867 85.289, 356.315 92.500 C 354.563 97.450, 353.101 101.838, 353.065 102.250 C 353.029 102.662, 354.088 103, 355.418 103 C 358.738 103, 361 103.979, 361 105.416 C 361 108.091, 358.116 110.351, 353.983 110.914 L 349.678 111.500 346.839 119.955 C 345.277 124.605, 344 128.833, 344 129.350 C 344 129.905, 346.927 130.045, 351.146 129.691 C 367.800 128.295, 380.318 116.139, 380.446 101.239 C 380.495 95.517, 380.253 94.781, 377.637 92.693 L 374.774 90.408 380.182 84.870 C 385.410 79.515, 389 72.172, 389 66.836 C 389 62.985, 386.124 59.267, 381.788 57.513 C 375.885 55.125, 343.304 53.956, 342.575 56.106" stroke="none" fill="#ffffff" fill-rule="evenodd"/>
</svg>