<svg xmlns="http://www.w3.org/2000/svg" width="466" height="180" viewBox="0 0 466 180" version="1.1">
	<path d="M 69.143 41.493 C 61.007 44.031, 57.945 48.327, 52.035 65.497 C 47.223 79.479, 45.950 81.697, 41.716 83.477 C 38.994 84.622, 38.219 85.879, 35.805 93.063 C 33.054 101.247, 33.047 101.344, 35.013 102.722 C 37.887 104.735, 37.524 108.049, 32.947 121.547 C 27.828 136.645, 27.481 141.296, 31.231 144.522 C 34.460 147.300, 39.784 148.240, 49.872 147.812 L 57.245 147.500 60.095 139.500 C 61.663 135.100, 62.958 131.387, 62.973 131.250 C 62.988 131.113, 60.736 131, 57.969 131 C 54.164 131, 52.779 130.587, 52.287 129.307 C 51.926 128.364, 53.290 122.910, 55.364 117.002 C 59.697 104.663, 60.281 99.072, 57.550 96.055 C 56.521 94.918, 55.864 93.860, 56.089 93.703 C 64.867 87.625, 65.281 86.989, 70.950 70.896 C 73.116 64.744, 75.383 59.217, 75.986 58.614 C 76.589 58.011, 79.613 57.288, 82.705 57.009 L 88.327 56.500 91.095 48.250 L 93.862 40 83.681 40.067 C 78.082 40.104, 71.539 40.745, 69.143 41.493 M 408.479 41.250 C 406.623 46.320, 404 54.462, 404 55.157 C 404 55.620, 405.096 56, 406.435 56 C 410.399 56, 414 57.799, 414 59.779 C 414 60.784, 412.425 66.284, 410.500 72 C 406.694 83.301, 406.178 88.381, 408.499 91.695 C 409.911 93.711, 409.765 94.018, 405.961 97.031 C 401.226 100.781, 399.396 104.146, 395.105 117 C 390.913 129.555, 390.230 130.364, 383.300 130.991 L 377.673 131.500 374.905 139.750 L 372.138 148 381.819 147.994 C 392.931 147.988, 398.141 146.830, 402.771 143.335 C 407.488 139.775, 408.743 137.452, 414.152 122.274 C 419.267 107.920, 420.469 105.877, 424.873 104.053 C 427.120 103.122, 428.071 101.489, 430.269 94.784 C 432.904 86.745, 432.913 86.627, 430.969 85.266 C 428.137 83.282, 428.461 80.724, 433.554 64.831 C 438.926 48.067, 438.842 44.700, 432.977 41.752 C 428.645 39.573, 409.239 39.176, 408.479 41.250 M 120.634 56.465 C 102.040 63.026, 87.663 78.459, 82.405 97.500 C 78.560 111.420, 83.938 123.693, 96.212 129.013 C 107.117 133.739, 124.249 131.424, 136.387 123.584 C 144.940 118.059, 154.047 107.630, 159.381 97.250 L 161.051 94 149.776 94.018 L 138.500 94.036 135.283 98.956 C 131.510 104.728, 125.300 108.723, 118.696 109.628 C 112.519 110.475, 108.585 108.752, 106.457 104.268 C 100.060 90.787, 119.594 70.625, 133.445 76.413 C 136.928 77.868, 138.305 79.877, 139.419 85.128 C 139.932 87.544, 140.323 87.728, 144.239 87.398 C 146.582 87.201, 151.988 86.767, 156.250 86.434 L 164 85.829 163.994 80.165 C 163.986 71.980, 162.385 67.373, 157.831 62.432 C 149.941 53.873, 134.844 51.451, 120.634 56.465 M 199.300 55.862 C 189.767 59.156, 182.966 65.129, 177.679 74.853 C 176.289 77.409, 171.313 90.862, 166.622 104.750 L 158.091 130 168.962 130 L 179.833 130 182.746 121.250 C 185.530 112.888, 185.805 112.478, 188.941 112 C 192.072 111.523, 192.374 111.076, 195.520 102.250 L 198.818 93 195.909 93 C 194.309 93, 193 92.637, 193 92.194 C 193 89.824, 197.361 78.983, 198.860 77.627 C 201.380 75.346, 205.013 75.181, 206.359 77.284 C 207.286 78.735, 205.873 83.833, 198.804 104.534 L 190.109 130 201.054 130 C 207.074 130, 212 129.879, 212 129.732 C 212 129.584, 216.077 117.550, 221.060 102.990 C 230.977 74.012, 232.458 66.720, 229.560 61.116 C 227.107 56.372, 221.312 54.041, 212 54.055 C 207.405 54.061, 202.486 54.761, 199.300 55.862 M 250.538 55.939 C 250.219 56.455, 246.554 66.915, 242.393 79.183 C 238.233 91.450, 234.497 101.715, 234.091 101.994 C 232.547 103.051, 230.761 112.188, 231.250 116.524 C 232.118 124.229, 239.423 129.291, 249.860 129.421 L 256.219 129.500 259.575 120 C 261.421 114.775, 262.947 109.938, 262.966 109.250 C 262.986 108.522, 261.755 108, 260.019 108 C 257.756 108, 256.907 107.458, 256.492 105.750 C 256.158 104.373, 259.059 94.200, 263.973 79.523 C 268.388 66.336, 272 55.424, 272 55.273 C 272 54.492, 251.030 55.142, 250.538 55.939 M 306 55.977 C 296.129 57.261, 287.382 63.420, 282.854 72.277 C 281.667 74.599, 278.063 84.361, 274.847 93.969 C 266.736 118.201, 266.926 122.683, 276.279 127.710 C 278.706 129.014, 282.612 129.534, 292.129 129.818 L 304.758 130.195 308.295 119.633 L 311.831 109.070 302.166 108.785 C 293.235 108.522, 292.477 108.341, 292.202 106.412 C 291.694 102.862, 294.646 101.536, 304.256 101 L 313.216 100.500 316.037 92.750 L 318.858 85 313.554 85 C 304.854 85, 302 84.113, 302 81.410 C 302 78.004, 304.812 77, 314.352 77 L 322.835 77 326.064 67.250 C 327.840 61.888, 329.501 56.938, 329.754 56.250 C 330.270 54.848, 315.948 54.684, 306 55.977 M 331.038 91.111 C 324.254 111.125, 318.498 128.063, 318.245 128.750 C 317.896 129.701, 320.379 130, 328.643 129.998 L 339.500 129.997 348.897 102.447 L 358.294 74.897 361.796 75.198 C 366.376 75.593, 368.084 78.144, 365.604 80.886 C 364.607 81.987, 362.826 83.026, 361.646 83.194 C 359.927 83.439, 358.867 85.289, 356.315 92.500 C 354.563 97.450, 353.101 101.838, 353.065 102.250 C 353.029 102.662, 354.088 103, 355.418 103 C 359.087 103, 361 104.023, 361 105.985 C 361 108.541, 358.419 110.308, 353.752 110.944 L 349.678 111.500 346.839 119.955 C 345.277 124.605, 344 128.833, 344 129.350 C 344 131.226, 358.107 129.182, 363.556 126.516 C 372.120 122.327, 379.165 113.073, 380.594 104.139 C 381.443 98.825, 380.546 95.587, 377.420 92.689 L 374.863 90.318 380.226 84.825 C 385.374 79.552, 389 72.158, 389 66.932 C 389 63.225, 386.586 59.978, 382.279 57.893 C 378.465 56.047, 375.526 55.687, 360.619 55.239 L 343.371 54.721 331.038 91.111" stroke="none" fill="#fca311" fill-rule="evenodd"/>
</svg>