<svg xmlns="http://www.w3.org/2000/svg" width="570" height="438" viewBox="0 0 570 438" version="1.1">
	<path d="M 411.867 79.008 C 398.457 80.548, 386.576 84.334, 385.381 87.450 C 385.097 88.189, 387.145 92.840, 389.932 97.784 C 392.720 102.729, 395 107.277, 395 107.892 C 395 108.506, 385.702 125.320, 374.337 145.255 C 352.262 183.976, 334.635 215.921, 331.662 222.592 L 329.838 226.685 319.107 227.726 C 305.841 229.014, 301.852 230.888, 292.795 240.086 C 283.785 249.236, 278.893 256.766, 278.250 262.474 C 277.779 266.654, 278.013 267.276, 281.177 270.258 C 283.206 272.170, 287.182 274.321, 290.869 275.500 L 297.121 277.500 293.223 283 C 291.079 286.025, 285.688 293.577, 281.243 299.782 C 276.799 305.988, 271.452 314.389, 269.360 318.452 C 264.864 327.187, 265.216 330.345, 271.011 333.248 C 276.121 335.809, 295.002 335.685, 305.415 333.022 C 324.442 328.155, 334.626 318, 349.352 289.205 L 355.128 277.910 367.314 278.441 C 411.974 280.384, 414.143 280.235, 430.948 274.086 C 435.594 272.386, 439.685 271.334, 440.040 271.748 C 440.394 272.161, 442.833 278.800, 445.461 286.500 C 458.193 323.815, 467.882 334.469, 489 334.376 C 500.424 334.326, 509.730 330.776, 526 320.260 C 530.675 317.239, 534.616 314.665, 534.759 314.541 C 534.901 314.417, 531.010 306.032, 526.112 295.908 C 504.482 251.196, 492.746 215.519, 485.021 171 C 476.043 119.261, 470.646 103.623, 457.037 89.916 C 451.665 84.505, 449.342 82.940, 444 81.134 C 436.418 78.571, 423.259 77.700, 411.867 79.008 M 192.585 80.048 C 166.092 84.174, 132.034 101.608, 104.912 124.927 C 72.911 152.441, 47.130 195.562, 38.900 235.336 C 35.985 249.424, 36.607 267.831, 40.394 279.500 C 45.308 294.645, 54.513 308.057, 66.714 317.849 C 75.216 324.672, 81.993 328.353, 93.021 332.137 C 101.963 335.206, 103.321 335.393, 117 335.445 C 133.685 335.508, 142.505 333.810, 164.415 326.315 C 198.112 314.788, 225.693 298.710, 234.807 285.281 C 243.249 272.842, 251 254.629, 251 247.232 C 251 242.670, 249.598 241, 245.768 241 C 241.497 241, 237.911 242.799, 220.478 253.686 C 179.489 279.284, 150.761 292, 133.922 292 C 121.371 292, 116.926 287.650, 114.893 273.377 C 111.161 247.170, 119.921 205.943, 136.116 173.500 C 151.845 141.992, 178.663 108.947, 187.480 110.211 C 195.558 111.369, 191.058 148.029, 177.809 189 C 174.198 200.166, 164.540 220.873, 158.797 229.760 C 153.386 238.135, 152.651 243.742, 156.466 247.557 C 158.975 250.066, 159.605 250.222, 164.985 249.659 C 179.912 248.099, 196.174 237.504, 214.129 217.640 C 238.356 190.838, 251.771 161.592, 253.642 131.500 C 254.640 115.434, 250.586 102.702, 241.578 93.614 C 232.739 84.696, 222.399 80.542, 206.736 79.614 C 202.206 79.346, 195.838 79.541, 192.585 80.048 M 396.601 188.675 C 388.496 206.179, 381.017 222.380, 379.981 224.678 L 378.096 228.856 386.798 229.221 C 391.584 229.422, 402.587 229.698, 411.250 229.833 C 426.713 230.074, 427 230.040, 427 227.957 C 427 225.160, 413.052 159.916, 412.085 158.187 C 411.614 157.346, 405.868 168.660, 396.601 188.675" stroke="none" fill="#fca311" fill-rule="evenodd"/>
</svg>